<?xml version="1.0" encoding="utf-8"?>
<svg viewBox="526.585 113.465 64.016 64.016" width="64.016" height="64.016" xmlns="http://www.w3.org/2000/svg">
  <path style="fill:#5A3392;" d="M 558.593 1133.825 C 541.015 1133.825 526.585 1148.255 526.585 1165.833 C 526.585 1183.411 541.014 1197.841 558.593 1197.841 C 576.171 1197.841 590.601 1183.411 590.601 1165.833 C 590.6 1148.255 576.171 1133.825 558.593 1133.825 Z" transform="matrix(1, 0, 0, 1, 0, -1020.3599853515625)"/>
  <path style="fill:#FFFFFF;" d="M 558.593 1149.771 C 567.524 1149.771 574.538 1156.904 574.538 1165.835 C 574.538 1174.766 567.525 1181.78 558.593 1181.78 C 549.662 1181.78 542.53 1174.766 542.53 1165.835 C 542.53 1156.903 549.662 1149.771 558.593 1149.771 Z" transform="matrix(1, 0, 0, 1, 0, -1020.3599853515625)"/>
</svg>