<?xml version="1.0" encoding="utf-8"?>
<svg viewBox="598.5384 65.6261 64.0558 63.9569" width="64.0558" height="63.9569" xmlns="http://www.w3.org/2000/svg">
  <g transform="matrix(1, 0, 0, 1, 550.468941308095, -1002.7313306088946)">
    <path style="fill:#FFFFFF;" d="M55.334,1068.429c-4.4,0.406-7.637,4.303-7.23,8.703c0.175,1.896,1.022,3.67,2.387,4.998 l47.835,47.836c3.131,3.131,8.208,3.131,11.339,0c3.131-3.133,3.131-8.209-0.001-11.34l0,0l-47.835-47.836 c-1.695-1.732-4.084-2.602-6.496-2.365L55.334,1068.429z"/>
    <path style="fill:#FFFFFF;" d="M103.05,1068.429c-1.797,0.23-3.463,1.064-4.725,2.365l-47.835,47.836 c-3.106,3.156-3.067,8.232,0.089,11.338c3.121,3.072,8.129,3.072,11.25,0l47.835-47.836c3.188-3.059,3.293-8.125,0.233-11.313 c-1.77-1.844-4.314-2.732-6.847-2.389V1068.429z"/>
  </g>
</svg>